<svg id="svg8" width="85.107mm" height="83.595mm" version="1.1" viewBox="0 0 85.107 83.595" xmlns="http://www.w3.org/2000/svg">
 <g id="layer1" transform="translate(-56.476 -78.31)">
  <rect id="rect815" x="60.476" y="82.31" width="77.107" height="75.595" rx="10.652" ry="13.761" style="fill:none;opacity:.937;stroke-linecap:round;stroke-linejoin:round;stroke-width:8;stroke:#303030"/>
  <path id="path823" transform="matrix(.26458 0 0 .26458 68.056 97.001)" d="m225.68 0a4.3469 4.3469 0 0 0-0.0488 0.0019531h-221.22a4.3469 4.3469 0 1 0 0 8.6895h221.22a4.3469 4.3469 0 1 0 0.04882-8.6914zm-221.27 45.459a4.3469 4.3469 0 1 0 0 8.6895h221.22a4.3469 4.3469 0 1 0 0-8.6895zm0 40.402a4.3479 4.3479 0 1 0 0 8.6953h221.22a4.3479 4.3479 0 1 0 0-8.6953zm0 43.441a4.3469 4.3469 0 1 0 0 8.6895h221.22a4.3469 4.3469 0 1 0 0-8.6895zm221.27 43.434a4.3469 4.3469 0 0 0-0.0488 2e-3h-221.22a4.3469 4.3469 0 1 0 0 8.6894h221.22a4.3469 4.3469 0 1 0 0.0488-8.6914z" style="color-rendering:auto;color:#000000;dominant-baseline:auto;fill:#4b4b4b;font-feature-settings:normal;font-variant-alternates:normal;font-variant-caps:normal;font-variant-ligatures:normal;font-variant-numeric:normal;font-variant-position:normal;image-rendering:auto;isolation:auto;mix-blend-mode:normal;shape-padding:0;shape-rendering:auto;solid-color:#000000;text-decoration-color:#000000;text-decoration-line:none;text-decoration-style:solid;text-indent:0;text-orientation:mixed;text-transform:none;white-space:normal"/>
 </g>
</svg>
