<svg id="svg854" width="33.607mm" height="31.851mm" version="1.1" viewBox="0 0 33.607 31.851" xmlns="http://www.w3.org/2000/svg">
 <g id="layer1" transform="translate(-83.158 -101.97)">
  <path id="rect1405" transform="matrix(.26458 0 0 .26458 50.942 91.636)" d="m123.81 39.055c-2e-3 0-0.72861 0.17465-0.73047 0.17578-2e-3 9.45e-4 -0.42588 0.30084-0.42773 0.30273-2e-3 0.0019-0.15926 0.18796-0.20703 0.25977-0.0478 0.07181-0.0777 0.12362-0.10352 0.17578-0.10352 0.2075-0.12392 0.3098-0.14648 0.40039-0.0451 0.18142-0.0561 0.30242-0.0742 0.44922-0.0363 0.29329-0.069 0.65079-0.0957 1.0996-0.0535 0.89771-0.0937 2.1519-0.13282 3.707-0.0781 3.1104-0.13281 7.3968-0.13281 12.143v82.957c0 4.7458 0.0547 9.0342 0.13281 12.145 0.0391 1.5552 0.0793 2.8152 0.13282 3.7129 0.0268 0.44886 0.0595 0.79839 0.0957 1.0918 0.0181 0.14664 0.0291 0.2696 0.0742 0.45117 0.0227 0.0907 0.043 0.19071 0.14648 0.39844 0.0257 0.0518 0.0558 0.11178 0.10352 0.18359 0.0477 0.0718 0.20518 0.25006 0.20703 0.25195 2e-3 2e-3 0.42588 0.30784 0.42773 0.3086 2e-3 9.4e-4 0.72861 0.16992 0.73047 0.16992h122.92c2e-3 0 0.72081-0.16917 0.72266-0.16992 2e-3 -9.1e-4 0.42783-0.30671 0.42968-0.3086 2e-3 -2e-3 0.15708-0.18014 0.20508-0.25195 0.0476-0.0718 0.0856-0.13181 0.11133-0.18359 0.10356-0.2075 0.11795-0.30788 0.14063-0.39844 0.045-0.18142 0.0639-0.30438 0.082-0.45117 0.0378-0.29329 0.0614-0.64294 0.0879-1.0918 0.0537-0.89767 0.10169-2.1577 0.14062-3.7129 0.0782-3.1104 0.125-7.3987 0.125-12.145v-82.957c0-4.7458-0.0468-9.0322-0.125-12.143-0.0389-1.5552-0.0873-2.8093-0.14062-3.707-0.0265-0.44882-0.052-0.80624-0.0879-1.0996-0.0189-0.14664-0.0386-0.26803-0.082-0.44922-0.0227-0.09071-0.0382-0.19301-0.14063-0.40039-0.0265-0.05178-0.0637-0.10397-0.11133-0.17578-0.0476-0.07181-0.20319-0.25788-0.20508-0.25977-2e-3 -0.0019-0.42783-0.3016-0.42968-0.30273-2e-3 -9.07e-4 -0.72081-0.17578-0.72266-0.17578zm1.4395 3.2324h120.04c0.0465 0.82515 0.0883 1.9591 0.125 3.418 0.0771 3.0689 0.125 7.3385 0.125 12.062v9.2031l-36.709 47.281-31.469-25.459a0.88912 0.88912 0 0 0-1.2559 0.13281l-25.533 31.838-6.5918-5.4629a0.88912 0.88912 0 0 0-1.373 0.29492l-17.506 36.561c-0.0694-3.0194-0.11524-6.9831-0.11524-11.432v-82.957c0-4.724 0.0479-8.9936 0.125-12.062 0.0367-1.4589 0.0862-2.5928 0.13282-3.418zm120.29 27.582v70.855c0 4.724-0.0479 8.9936-0.125 12.062-0.0378 1.4558-0.0785 2.593-0.125 3.418h-120.04c-3e-3 -0.0528-5e-3 -0.16341-8e-3 -0.21875l18.479-38.596 6.4141 5.3223a0.88912 0.88912 0 0 0 1.2617-0.13281l25.549-31.846 31.484 25.475a0.88912 0.88912 0 0 0 1.2617-0.14843z" style="color-rendering:auto;color:#000000;dominant-baseline:auto;fill:#4b4b4b;font-feature-settings:normal;font-variant-alternates:normal;font-variant-caps:normal;font-variant-ligatures:normal;font-variant-numeric:normal;font-variant-position:normal;image-rendering:auto;isolation:auto;mix-blend-mode:normal;opacity:.937;shape-padding:0;shape-rendering:auto;solid-color:#000000;text-decoration-color:#000000;text-decoration-line:none;text-decoration-style:solid;text-indent:0;text-orientation:mixed;text-transform:none;white-space:normal"/>
  <path id="path1425" transform="matrix(.26458 0 0 .26458 50.942 91.636)" d="m125.51 155.65c0.12996-0.24306 4.2334-8.7946 9.1186-19.003 4.8853-10.209 8.9693-18.651 9.0756-18.761 0.10626-0.10943 1.6374 0.99858 3.4025 2.4622 1.7651 1.4637 3.4103 2.6612 3.6559 2.6612 0.3815 0 6.3287-7.2914 25.804-31.637 0.37121-0.46403 1.1091 0.0969 16.162 12.286 9.2648 7.5019 15.989 12.775 16.295 12.778 0.39564 5e-3 4.8495-5.5695 18.435-23.073l17.914-23.08 0.0783 35.517c0.0431 19.534 2e-3 38.841-0.0921 42.904l-0.17036 7.3867h-59.958c-57.024 0-59.946-0.0216-59.721-0.44195z" style="fill:#c6c6c6;opacity:.937;paint-order:normal;stroke-linecap:round;stroke-linejoin:round;stroke-width:1.2074;stroke:#545454"/>
  <g id="g1661">
   <circle id="use1505" cx="97.273" cy="107.54" r=".094494" style="fill:none;opacity:.937;paint-order:normal;stroke-linecap:round;stroke-linejoin:round;stroke-width:.2;stroke:#b4b4b4"/>
   <circle id="use1511" cx="93.556" cy="114.09" r=".094494" style="fill:none;opacity:.937;paint-order:normal;stroke-linecap:round;stroke-linejoin:round;stroke-width:.2;stroke:#b4b4b4"/>
   <circle id="use1527" cx="97.226" cy="103.82" r=".094494" style="fill:none;opacity:.937;paint-order:normal;stroke-linecap:round;stroke-linejoin:round;stroke-width:.2;stroke:#b4b4b4"/>
   <circle id="use1529" cx="91.025" cy="106.26" r=".094494" style="fill:none;opacity:.937;paint-order:normal;stroke-linecap:round;stroke-linejoin:round;stroke-width:.2;stroke:#b4b4b4"/>
   <circle id="use1531" cx="90.031" cy="110.84" r=".094494" style="fill:none;opacity:.937;paint-order:normal;stroke-linecap:round;stroke-linejoin:round;stroke-width:.2;stroke:#b4b4b4"/>
   <circle id="use1533" cx="87.788" cy="119.13" r=".094494" style="fill:none;opacity:.937;paint-order:normal;stroke-linecap:round;stroke-linejoin:round;stroke-width:.2;stroke:#b4b4b4"/>
   <circle id="use1535" cx="87.21" cy="115.47" r=".094494" style="fill:none;opacity:.937;paint-order:normal;stroke-linecap:round;stroke-linejoin:round;stroke-width:.2;stroke:#b4b4b4"/>
   <circle id="use1539" cx="86.415" cy="110.52" r=".094494" style="fill:none;opacity:.937;paint-order:normal;stroke-linecap:round;stroke-linejoin:round;stroke-width:.2;stroke:#b4b4b4"/>
   <circle id="use1545" cx="113.62" cy="103.87" r=".094494" style="fill:none;opacity:.937;paint-order:normal;stroke-linecap:round;stroke-linejoin:round;stroke-width:.2;stroke:#b4b4b4"/>
   <circle id="use1549" cx="111.65" cy="107.37" r=".094494" style="fill:none;opacity:.937;paint-order:normal;stroke-linecap:round;stroke-linejoin:round;stroke-width:.2;stroke:#b4b4b4"/>
   <circle id="use1559" cx="111.31" cy="110.03" r=".094494" style="fill:none;opacity:.937;paint-order:normal;stroke-linecap:round;stroke-linejoin:round;stroke-width:.2;stroke:#b4b4b4"/>
   <circle id="use1561" cx="99.816" cy="110.45" r=".094494" style="fill:none;opacity:.937;paint-order:normal;stroke-linecap:round;stroke-linejoin:round;stroke-width:.2;stroke:#b4b4b4"/>
   <circle id="use1563" cx="103.46" cy="107.93" r=".094494" style="fill:none;opacity:.937;paint-order:normal;stroke-linecap:round;stroke-linejoin:round;stroke-width:.2;stroke:#b4b4b4"/>
  </g>
  <g id="g1646" transform="matrix(.90248 0 0 .92558 10.52 7.7489)">
   <path id="use1515" d="m107.88 111.28c-0.10624 0-0.19336 0.0871-0.19336 0.19336 0 0.10623 0.0871 0.19531 0.19336 0.19531 0.10623 0 0.19531-0.0891 0.19531-0.19531 0-0.10624-0.0891-0.19336-0.19531-0.19336zm0 0.1875c2e-3 0 6e-3 4e-3 6e-3 6e-3s-4e-3 6e-3 -6e-3 6e-3 -6e-3 -4e-3 -6e-3 -6e-3 4e-3 -6e-3 6e-3 -6e-3z" style="color-rendering:auto;color:#000000;dominant-baseline:auto;fill:#b4b4b4;font-feature-settings:normal;font-variant-alternates:normal;font-variant-caps:normal;font-variant-ligatures:normal;font-variant-numeric:normal;font-variant-position:normal;image-rendering:auto;isolation:auto;mix-blend-mode:normal;opacity:.937;paint-order:normal;shape-padding:0;shape-rendering:auto;solid-color:#000000;text-decoration-color:#000000;text-decoration-line:none;text-decoration-style:solid;text-indent:0;text-orientation:mixed;text-transform:none;white-space:normal"/>
   <path id="use1517" d="m108.42 106.62c-0.10623 0-0.19531 0.0891-0.19531 0.19531 0 0.10623 0.0891 0.19336 0.19531 0.19336 0.10623 0 0.19336-0.0871 0.19336-0.19336 0-0.10623-0.0871-0.19531-0.19336-0.19531zm0 0.18945c2e-3 0 6e-3 4e-3 6e-3 6e-3s-4e-3 4e-3 -6e-3 4e-3 -6e-3 -2e-3 -6e-3 -4e-3 4e-3 -6e-3 6e-3 -6e-3z" style="color-rendering:auto;color:#000000;dominant-baseline:auto;fill:#b4b4b4;font-feature-settings:normal;font-variant-alternates:normal;font-variant-caps:normal;font-variant-ligatures:normal;font-variant-numeric:normal;font-variant-position:normal;image-rendering:auto;isolation:auto;mix-blend-mode:normal;opacity:.937;paint-order:normal;shape-padding:0;shape-rendering:auto;solid-color:#000000;text-decoration-color:#000000;text-decoration-line:none;text-decoration-style:solid;text-indent:0;text-orientation:mixed;text-transform:none;white-space:normal"/>
   <ellipse id="ellipse1603" cx="108.01" cy="109.4" rx="3.0404" ry="2.9179" style="fill:#b7b7b7;opacity:.937;paint-order:normal"/>
   <ellipse id="path1605" cx="106.3" cy="107.99" rx=".2008" ry=".35435" style="fill:#b7b7b7;opacity:.937;paint-order:normal"/>
   <ellipse id="path1607" cx="108.78" cy="108.83" rx=".31892" ry=".2008" style="fill:#b7b7b7;opacity:.937;paint-order:normal"/>
   <ellipse id="path1609" cx="106.06" cy="109.46" rx=".23624" ry=".25986" style="fill:#b7b7b7;opacity:.937;paint-order:normal"/>
   <ellipse id="path1611" cx="107.31" cy="111.11" rx=".61421" ry=".63783" style="fill:#b7b7b7;opacity:.937;paint-order:normal"/>
   <ellipse id="path1613" cx="108.16" cy="110.92" rx=".14174" ry=".11812" style="fill:#b7b7b7;opacity:.937;paint-order:normal"/>
   <ellipse id="path1615" cx="108.56" cy="110.76" rx=".14174" ry=".11812" style="fill:#b7b7b7;opacity:.937;paint-order:normal"/>
   <ellipse id="path1619" cx="109.37" cy="108.14" rx=".2008" ry=".30711" style="fill:#b7b7b7;opacity:.937;paint-order:normal"/>
  </g>
 </g>
</svg>
