<?xml version="1.0" encoding="UTF-8" standalone="no"?>
<svg
   xmlns:dc="http://purl.org/dc/elements/1.1/"
   xmlns:cc="http://creativecommons.org/ns#"
   xmlns:rdf="http://www.w3.org/1999/02/22-rdf-syntax-ns#"
   xmlns:svg="http://www.w3.org/2000/svg"
   xmlns="http://www.w3.org/2000/svg"
   xmlns:sodipodi="http://sodipodi.sourceforge.net/DTD/sodipodi-0.dtd"
   xmlns:inkscape="http://www.inkscape.org/namespaces/inkscape"
   width="117.55059mm"
   height="117.55059mm"
   viewBox="0 0 117.55059 117.55059"
   version="1.1"
   id="svg8"

   inkscape:version="0.92.3 (2405546, 2018-03-11)"
   sodipodi:docname="moon.svg">
  <metadata
     id="metadata875">
    <rdf:RDF>
      <cc:Work
         rdf:about="">
        <dc:format>image/svg+xml</dc:format>
        <dc:type
           rdf:resource="http://purl.org/dc/dcmitype/StillImage" />
        <dc:title></dc:title>
      </cc:Work>
    </rdf:RDF>
  </metadata>
  <sodipodi:namedview
     pagecolor="#ffffff"
     bordercolor="#666666"
     borderopacity="1"
     objecttolerance="10"
     gridtolerance="10"
     guidetolerance="10"
     inkscape:pageopacity="0"
     inkscape:pageshadow="2"
     inkscape:window-width="1920"
     inkscape:window-height="1027"
     id="namedview873"
     showgrid="false"
     inkscape:zoom="1.0623795"
     inkscape:cx="99.193212"
     inkscape:cy="209.5471"
     inkscape:window-x="-8"
     inkscape:window-y="-8"
     inkscape:window-maximized="1"
     inkscape:current-layer="layer1"
     fit-margin-top="0"
     fit-margin-left="0"
     fit-margin-right="0"
     fit-margin-bottom="0"

     inkscape:pagecheckerboard="true"
     showborder="false" />
  <defs
     id="defs2" />
  <g
     inkscape:label="Layer 1"
     inkscape:groupmode="layer"
     id="layer1"
     transform="translate(-45.735119,-86.845237)">
    <g
       id="g1475">
      <circle
         transform="rotate(-147.4468)"
         r="58.775295"
         cy="-66.507187"
         cx="-166.44687"
         id="path815"
         style="opacity:0.90499998;fill:#cccccc;fill-opacity:1;stroke:none;stroke-width:0.1;stroke-linecap:round;stroke-linejoin:round;stroke-miterlimit:4;stroke-dasharray:none;stroke-opacity:1" />
      <ellipse
         transform="rotate(-147.4468)"
         ry="37.940754"
         rx="38.742561"
         cy="-71.466721"
         cx="-151.3278"
         id="path817"
         style="opacity:0.90499998;fill:#e6e6e6;fill-opacity:1;stroke:none;stroke-width:0.0989598;stroke-linecap:round;stroke-linejoin:round;stroke-miterlimit:4;stroke-dasharray:none;stroke-opacity:1" />
      <circle
         transform="rotate(-147.4468)"
         r="2.5390604"
         cy="-108.22994"
         cx="-160.30769"
         id="path821"
         style="opacity:0.90499998;fill:#e6e6e6;fill-opacity:1;stroke:none;stroke-width:0.1;stroke-linecap:round;stroke-linejoin:round;stroke-miterlimit:4;stroke-dasharray:none;stroke-opacity:1" />
      <circle
         transform="rotate(-147.4468)"
         r="1.8708867"
         cy="-94.989357"
         cx="-181.82826"
         id="path823"
         style="opacity:0.90499998;fill:#e6e6e6;fill-opacity:1;stroke:none;stroke-width:0.1;stroke-linecap:round;stroke-linejoin:round;stroke-miterlimit:4;stroke-dasharray:none;stroke-opacity:1" />
      <circle
         transform="rotate(-147.4468)"
         r="6.6817379"
         cy="-72.950378"
         cx="-189.27957"
         id="path825"
         style="opacity:0.90499998;fill:#e6e6e6;fill-opacity:1;stroke:none;stroke-width:0.1;stroke-linecap:round;stroke-linejoin:round;stroke-miterlimit:4;stroke-dasharray:none;stroke-opacity:1" />
      <circle
         transform="rotate(-147.4468)"
         r="5.8799295"
         cy="-103.95902"
         cx="-131.69371"
         id="path831"
         style="opacity:0.90499998;fill:#e6e6e6;fill-opacity:1;stroke:none;stroke-width:0.1;stroke-linecap:round;stroke-linejoin:round;stroke-miterlimit:4;stroke-dasharray:none;stroke-opacity:1" />
      <circle
         transform="rotate(-147.4468)"
         r="1.8040693"
         cy="-53.779175"
         cx="-117.33872"
         id="path833"
         style="opacity:0.90499998;fill:#ececec;fill-opacity:1;stroke:none;stroke-width:0.1;stroke-linecap:round;stroke-linejoin:round;stroke-miterlimit:4;stroke-dasharray:none;stroke-opacity:1" />
      <circle
         transform="rotate(-147.4468)"
         r="4.2763124"
         cy="-50.366089"
         cx="-118.34637"
         id="path835"
         style="opacity:0.90499998;fill:#e6e6e6;fill-opacity:1;stroke:none;stroke-width:0.1;stroke-linecap:round;stroke-linejoin:round;stroke-miterlimit:4;stroke-dasharray:none;stroke-opacity:1" />
      <circle
         transform="rotate(-147.4468)"
         r="4.9444861"
         cy="-37.253769"
         cx="-133.98164"
         id="path837"
         style="opacity:0.90499998;fill:#e6e6e6;fill-opacity:1;stroke:none;stroke-width:0.1;stroke-linecap:round;stroke-linejoin:round;stroke-miterlimit:4;stroke-dasharray:none;stroke-opacity:1" />
      <circle
         transform="rotate(-147.4468)"
         r="8.8867121"
         cy="-89.186996"
         cx="-149.01555"
         id="path847"
         style="opacity:0.90499998;fill:#b3b3b3;fill-opacity:1;stroke:none;stroke-width:0.1;stroke-linecap:round;stroke-linejoin:round;stroke-miterlimit:4;stroke-dasharray:none;stroke-opacity:1" />
      <circle
         transform="rotate(-147.4468)"
         r="3.6749561"
         cy="-95.200569"
         cx="-201.93492"
         id="path851"
         style="opacity:0.90499998;fill:#b3b3b3;fill-opacity:1;stroke:none;stroke-width:0.1;stroke-linecap:round;stroke-linejoin:round;stroke-miterlimit:4;stroke-dasharray:none;stroke-opacity:1" />
      <circle
         transform="rotate(-147.4468)"
         r="2.271791"
         cy="-25.777298"
         cx="-170.19666"
         id="path855"
         style="opacity:0.90499998;fill:#b3b3b3;fill-opacity:1;stroke:none;stroke-width:0.1;stroke-linecap:round;stroke-linejoin:round;stroke-miterlimit:4;stroke-dasharray:none;stroke-opacity:1" />
      <circle
         transform="rotate(-147.4468)"
         r="2.2678571"
         cy="-112.80927"
         cx="-181.37691"
         id="path857"
         style="opacity:0.90499998;fill:#b3b3b3;fill-opacity:1;stroke:none;stroke-width:0.1;stroke-linecap:round;stroke-linejoin:round;stroke-miterlimit:4;stroke-dasharray:none;stroke-opacity:1" />
      <ellipse
         transform="rotate(-147.4468)"
         ry="14.03165"
         rx="14.566189"
         cy="-63.456909"
         cx="-170.65666"
         id="path869"
         style="opacity:0.93699999;fill:#f2f2f2;fill-opacity:1;stroke:none;stroke-width:0.1;stroke-linecap:round;stroke-linejoin:round;stroke-miterlimit:4;stroke-dasharray:none;stroke-opacity:1" />
      <ellipse
         transform="rotate(-147.4468)"
         ry="4.9609375"
         rx="4.3467264"
         cy="-95.942078"
         cx="-178.16411"
         id="path895"
         style="opacity:0.93699999;fill:#e6e6e6;fill-opacity:1;stroke:none;stroke-width:0.1;stroke-linecap:round;stroke-linejoin:round;stroke-miterlimit:4;stroke-dasharray:none;stroke-opacity:1" />
      <ellipse
         transform="rotate(-147.4468)"
         ry="1.4529551"
         rx="1.7364372"
         cy="-106.63367"
         cx="-137.56876"
         id="path897"
         style="opacity:0.93699999;fill:#e6e6e6;fill-opacity:1;stroke:none;stroke-width:0.03548063;stroke-linecap:round;stroke-linejoin:round;stroke-miterlimit:4;stroke-dasharray:none;stroke-opacity:1" />
      <ellipse
         transform="rotate(-147.4468)"
         ry="3.2740517"
         rx="3.541321"
         cy="-35.933548"
         cx="-138.05751"
         id="path903"
         style="opacity:0.93699999;fill:#e6e6e6;fill-opacity:1;stroke:none;stroke-width:0.1;stroke-linecap:round;stroke-linejoin:round;stroke-miterlimit:4;stroke-dasharray:none;stroke-opacity:1" />
      <ellipse
         transform="rotate(-147.4468)"
         ry="3.7417731"
         rx="3.8085907"
         cy="-37.526413"
         cx="-134.32648"
         id="path845"
         style="opacity:0.90499998;fill:#b3b3b3;fill-opacity:1;stroke:none;stroke-width:0.09046887;stroke-linecap:round;stroke-linejoin:round;stroke-miterlimit:4;stroke-dasharray:none;stroke-opacity:1" />
      <ellipse
         transform="rotate(-147.4468)"
         ry="6.0803819"
         rx="6.2808337"
         cy="-72.883545"
         cx="-188.63826"
         id="path841"
         style="opacity:0.90499998;fill:#b3b3b3;fill-opacity:1;stroke:none;stroke-width:0.1;stroke-linecap:round;stroke-linejoin:round;stroke-miterlimit:4;stroke-dasharray:none;stroke-opacity:1" />
      <ellipse
         transform="rotate(-147.4468)"
         ry="3.7797618"
         rx="3.8742559"
         cy="-58.191696"
         cx="-156.14702"
         id="path907"
         style="opacity:0.93699999;fill:#f2f2f2;fill-opacity:1;stroke:none;stroke-width:0.1;stroke-linecap:round;stroke-linejoin:round;stroke-miterlimit:4;stroke-dasharray:none;stroke-opacity:1" />
      <path
         sodipodi:nodetypes="cssssc"
         inkscape:connector-curvature="0"
         id="path911"
         d="m 148.39624,142.55215 c -0.72559,-4.1136 -1.44817,-8.4016 -3.11427,-12.33318 -3.06703,-7.23743 -7.21997,-12.97473 -4.6351,-13.27006 3.98905,-0.45576 16.19098,15.85342 16.87901,25.25482 0.68804,9.40139 -8.9e-4,15.37138 -4.01804,21.71326 -11.25328,17.7656 -2.79256,-3.62076 -4.46502,-12.5298"
         style="opacity:0.93699999;fill:#e6e6e6;fill-opacity:1;stroke:none;stroke-width:0.1534979;stroke-linecap:round;stroke-linejoin:round;stroke-miterlimit:4;stroke-dasharray:none;stroke-opacity:1" />
      <path
         style="opacity:0.93699999;fill:#ececec;fill-opacity:1;stroke:none;stroke-width:0.07728921;stroke-linecap:round;stroke-linejoin:round;stroke-miterlimit:4;stroke-dasharray:none;stroke-opacity:1"
         d="m 58.240927,130.17632 c -0.850455,2.13809 -1.748733,4.35502 -2.222352,6.73849 -0.871849,4.38758 -0.962586,8.46752 -1.943275,7.69928 -1.513435,-1.18557 -1.393824,-12.92208 0.888206,-17.46942 2.282016,-4.54734 4.123765,-7.0414 7.225979,-8.54247 8.690276,-4.20498 0.0026,2.63482 -1.804024,7.30072"
         id="path914"
         inkscape:connector-curvature="0"
         sodipodi:nodetypes="cssssc" />
      <path
         sodipodi:nodetypes="cssssc"
         inkscape:connector-curvature="0"
         id="path1429"
         d="m 71.165179,152.61363 c -0.340327,0.80601 -0.699791,1.64174 -0.88932,2.54025 -0.348888,1.65401 -0.385198,3.19205 -0.777641,2.90244 -0.605632,-0.44693 -0.557767,-4.87131 0.355434,-6.58555 0.913195,-1.71424 1.650208,-2.65444 2.891623,-3.22031 3.47759,-1.58517 10e-4,0.99327 -0.721917,2.7522"
         style="opacity:0.93699999;fill:#ececec;fill-opacity:1;stroke:none;stroke-width:0.03001914;stroke-linecap:round;stroke-linejoin:round;stroke-miterlimit:4;stroke-dasharray:none;stroke-opacity:1" />
      <path
         style="opacity:0.93699999;fill:#ececec;fill-opacity:1;stroke:none;stroke-width:0.01762922;stroke-linecap:round;stroke-linejoin:round;stroke-miterlimit:4;stroke-dasharray:none;stroke-opacity:1"
         d="m 115.41808,160.96983 c -0.17295,0.43184 -0.3568,0.88029 -0.41947,1.34188 -0.11534,0.84971 -0.0251,1.60977 -0.31581,1.50832 -0.44861,-0.15656 -0.74699,-2.33708 -0.24931,-3.2753 0.49767,-0.9382 0.93252,-1.47743 1.74114,-1.88523 2.26524,-1.14236 0.0751,0.4883 -0.28885,1.42864"
         id="path1431"
         inkscape:connector-curvature="0"
         sodipodi:nodetypes="cssssc" />
      <path
         style="opacity:0.93699999;fill:#ececec;fill-opacity:1;stroke:none;stroke-width:0.01013036;stroke-linecap:round;stroke-linejoin:round;stroke-miterlimit:4;stroke-dasharray:none;stroke-opacity:1"
         d="m 91.021967,191.98507 c -0.113628,0.20176 -0.234441,0.41097 -0.274738,0.63589 -0.07418,0.41404 -0.01208,0.79906 -0.205417,0.72656 -0.298367,-0.11188 -0.502739,-1.21942 -0.174916,-1.64854 0.327819,-0.42912 0.615051,-0.66448 1.150888,-0.80613 1.50104,-0.39681 0.05121,0.24864 -0.187747,0.68895"
         id="path1435"
         inkscape:connector-curvature="0"
         sodipodi:nodetypes="cssssc" />
      <path
         style="opacity:0.93699999;fill:#ececec;fill-opacity:1;stroke:none;stroke-width:0.01224747;stroke-linecap:round;stroke-linejoin:round;stroke-miterlimit:4;stroke-dasharray:none;stroke-opacity:1"
         d="m 116.42306,187.8845 c -0.13743,0.33222 -0.2826,0.67671 -0.35913,1.04706 -0.1409,0.68177 -0.15556,1.31573 -0.31404,1.19635 -0.24457,-0.18422 -0.22524,-2.00789 0.14353,-2.71449 0.36878,-0.70658 0.66641,-1.09412 1.16774,-1.32737 1.40436,-0.65339 4e-4,0.40942 -0.29154,1.13442"
         id="path1439"
         inkscape:connector-curvature="0"
         sodipodi:nodetypes="cssssc" />
      <path
         style="opacity:0.93699999;fill:#ececec;fill-opacity:1;stroke:none;stroke-width:0.01517223;stroke-linecap:round;stroke-linejoin:round;stroke-miterlimit:4;stroke-dasharray:none;stroke-opacity:1"
         d="m 90.72529,102.37222 c -0.219046,0.31989 -0.450409,0.65158 -0.572396,1.00818 -0.224557,0.65645 -0.247927,1.26687 -0.500516,1.15193 -0.389806,-0.17738 -0.358998,-1.93334 0.228769,-2.6137 0.587764,-0.68035 1.06213,-1.0535 1.861147,-1.27808 2.238295,-0.62913 6.14e-4,0.39421 -0.464651,1.0923"
         id="path1441"
         inkscape:connector-curvature="0"
         sodipodi:nodetypes="cssssc" />
      <path
         sodipodi:nodetypes="cssssc"
         inkscape:connector-curvature="0"
         id="path1443"
         d="m 128.17006,112.07001 c -0.0838,0.11051 -0.17226,0.22509 -0.21892,0.34828 -0.0859,0.22677 -0.0948,0.43764 -0.19143,0.39794 -0.14908,-0.0613 -0.1373,-0.66788 0.0875,-0.90292 0.2248,-0.23502 0.40622,-0.36393 0.71182,-0.44151 0.85607,-0.21734 2.3e-4,0.13618 -0.17771,0.37734"
         style="opacity:0.93699999;fill:#ececec;fill-opacity:1;stroke:none;stroke-width:0.00551492;stroke-linecap:round;stroke-linejoin:round;stroke-miterlimit:4;stroke-dasharray:none;stroke-opacity:1" />
    </g>
  </g>
</svg>
